<mxfile host="app.diagrams.net" modified="2024-01-30T09:21:10.389Z" agent="Mozilla/5.0 (X11; Linux x86_64) AppleWebKit/537.36 (KHTML, like Gecko) Chrome/119.0.0.0 Safari/537.36" version="23.0.2" etag="RwbzYc4KRUHhaYz1G_9N" type="github">
  <diagram name="Page-1" id="K5mwUWBp2MAVp4W585Tk">
    <mxGraphModel>
      <root>
        <mxCell id="0" />
        <mxCell id="1" parent="0" />
      </root>
    </mxGraphModel>
  </diagram>
</mxfile>
